<?xml version="1.0" encoding="UTF-8"?><svg xmlns="http://www.w3.org/2000/svg" xmlns:xlink="http://www.w3.org/1999/xlink" fill-opacity="1" color-rendering="auto" color-interpolation="auto" text-rendering="auto" stroke="black" stroke-linecap="square" width="559" stroke-miterlimit="10" shape-rendering="auto" stroke-opacity="1" fill="black" stroke-dasharray="none" font-weight="normal" stroke-width="1" height="919" font-family="'Dialog'" font-style="normal" stroke-linejoin="miter" font-size="12px" stroke-dashoffset="0" image-rendering="auto">
  <!--Generated by ySVG 2.5-->
  <defs id="genericDefs"/>
  <g>
    <defs id="defs1">
      <clipPath clipPathUnits="userSpaceOnUse" id="clipPath1">
        <path d="M0 0 L559 0 L559 919 L0 919 L0 0 Z"/>
      </clipPath>
      <clipPath clipPathUnits="userSpaceOnUse" id="clipPath2">
        <path d="M380 55 L939 55 L939 974 L380 974 L380 55 Z"/>
      </clipPath>
      <clipPath clipPathUnits="userSpaceOnUse" id="clipPath3">
        <path d="M579 342 L579 402 L736 402 L736 342 Z"/>
      </clipPath>
      <clipPath clipPathUnits="userSpaceOnUse" id="clipPath4">
        <path d="M766 433 L766 493 L923 493 L923 433 Z"/>
      </clipPath>
      <clipPath clipPathUnits="userSpaceOnUse" id="clipPath5">
        <path d="M766 160 L766 220 L923 220 L923 160 Z"/>
      </clipPath>
      <clipPath clipPathUnits="userSpaceOnUse" id="clipPath6">
        <path d="M766 247 L766 307 L923 307 L923 247 Z"/>
      </clipPath>
      <clipPath clipPathUnits="userSpaceOnUse" id="clipPath7">
        <path d="M766 70 L766 130 L923 130 L923 70 Z"/>
      </clipPath>
      <clipPath clipPathUnits="userSpaceOnUse" id="clipPath8">
        <path d="M395 158 L395 218 L552 218 L552 158 Z"/>
      </clipPath>
      <clipPath clipPathUnits="userSpaceOnUse" id="clipPath9">
        <path d="M395 70 L395 130 L552 130 L552 70 Z"/>
      </clipPath>
      <clipPath clipPathUnits="userSpaceOnUse" id="clipPath10">
        <path d="M395 433 L395 547 L552 547 L552 433 Z"/>
      </clipPath>
      <clipPath clipPathUnits="userSpaceOnUse" id="clipPath11">
        <path d="M766 524 L766 722 L923 722 L923 524 Z"/>
      </clipPath>
      <clipPath clipPathUnits="userSpaceOnUse" id="clipPath12">
        <path d="M395 690 L395 958 L552 958 L552 690 Z"/>
      </clipPath>
      <clipPath clipPathUnits="userSpaceOnUse" id="clipPath13">
        <path d="M395 247 L395 307 L552 307 L552 247 Z"/>
      </clipPath>
      <clipPath clipPathUnits="userSpaceOnUse" id="clipPath14">
        <path d="M395 578 L395 650 L552 650 L552 578 Z"/>
      </clipPath>
    </defs>
    <g fill="white" text-rendering="geometricPrecision" shape-rendering="geometricPrecision" transform="translate(-380,-55)" stroke="white">
      <rect x="380" width="559" height="919" y="55" clip-path="url(#clipPath2)" stroke="none"/>
    </g>
    <g text-rendering="geometricPrecision" stroke-miterlimit="1.45" stroke-width="2" shape-rendering="geometricPrecision" transform="matrix(1,0,0,1,-380,-55)" stroke-linecap="butt">
      <rect fill="none" x="579.3727" width="157" height="60.9147" y="342.7522" clip-path="url(#clipPath2)"/>
      <text x="630.6119" y="358.885" clip-path="url(#clipPath3)" font-family="'Roboto'" stroke="none" stroke-width="1" xml:space="preserve">&lt;&lt;Class&gt;&gt;</text>
    </g>
    <g font-size="13px" stroke-linecap="butt" transform="matrix(1,0,0,1,-380,-55)" text-rendering="geometricPrecision" font-family="'Roboto'" shape-rendering="geometricPrecision" font-weight="bold" stroke-miterlimit="1.45">
      <text x="599.0839" xml:space="preserve" y="382.8752" clip-path="url(#clipPath3)" stroke="none">TLogViewerSettings</text>
    </g>
    <g text-rendering="geometricPrecision" stroke-miterlimit="1.45" stroke-width="2" shape-rendering="geometricPrecision" transform="matrix(1,0,0,1,-380,-55)" stroke-linecap="butt">
      <rect fill="none" x="766.8539" width="157" height="60.9147" y="433.6668" clip-path="url(#clipPath2)"/>
      <text x="818.0932" y="449.7997" clip-path="url(#clipPath4)" font-family="'Roboto'" stroke="none" stroke-width="1" xml:space="preserve">&lt;&lt;Class&gt;&gt;</text>
    </g>
    <g font-size="13px" stroke-linecap="butt" transform="matrix(1,0,0,1,-380,-55)" text-rendering="geometricPrecision" font-family="'Roboto'" shape-rendering="geometricPrecision" font-weight="bold" stroke-miterlimit="1.45">
      <text x="802.0598" xml:space="preserve" y="473.7899" clip-path="url(#clipPath4)" stroke="none">TFormSettings</text>
    </g>
    <g text-rendering="geometricPrecision" stroke-miterlimit="1.45" stroke-width="2" shape-rendering="geometricPrecision" transform="matrix(1,0,0,1,-380,-55)" stroke-linecap="butt">
      <rect fill="none" x="766.8539" width="157" height="60.9147" y="160.9228" clip-path="url(#clipPath2)"/>
      <text x="818.0932" y="177.0556" clip-path="url(#clipPath5)" font-family="'Roboto'" stroke="none" stroke-width="1" xml:space="preserve">&lt;&lt;Class&gt;&gt;</text>
    </g>
    <g font-size="13px" stroke-linecap="butt" transform="matrix(1,0,0,1,-380,-55)" text-rendering="geometricPrecision" font-family="'Roboto'" shape-rendering="geometricPrecision" font-weight="bold" stroke-miterlimit="1.45">
      <text x="793.3349" xml:space="preserve" y="201.0459" clip-path="url(#clipPath5)" stroke="none">TWinODSSettings</text>
    </g>
    <g text-rendering="geometricPrecision" stroke-miterlimit="1.45" stroke-width="2" shape-rendering="geometricPrecision" transform="matrix(1,0,0,1,-380,-55)" stroke-linecap="butt">
      <rect fill="none" x="766.8539" width="157" height="60.9147" y="247.5405" clip-path="url(#clipPath2)"/>
      <text x="818.0932" y="263.6733" clip-path="url(#clipPath6)" font-family="'Roboto'" stroke="none" stroke-width="1" xml:space="preserve">&lt;&lt;Class&gt;&gt;</text>
    </g>
    <g font-size="13px" stroke-linecap="butt" transform="matrix(1,0,0,1,-380,-55)" text-rendering="geometricPrecision" font-family="'Roboto'" shape-rendering="geometricPrecision" font-weight="bold" stroke-miterlimit="1.45">
      <text x="795.9406" xml:space="preserve" y="287.6635" clip-path="url(#clipPath6)" stroke="none">TWinIPCSettings</text>
    </g>
    <g text-rendering="geometricPrecision" stroke-miterlimit="1.45" stroke-width="2" shape-rendering="geometricPrecision" transform="matrix(1,0,0,1,-380,-55)" stroke-linecap="butt">
      <rect fill="none" x="766.8539" width="157" height="60.9147" y="70.0082" clip-path="url(#clipPath2)"/>
      <text x="818.0932" y="86.141" clip-path="url(#clipPath7)" font-family="'Roboto'" stroke="none" stroke-width="1" xml:space="preserve">&lt;&lt;Class&gt;&gt;</text>
    </g>
    <g font-size="13px" stroke-linecap="butt" transform="matrix(1,0,0,1,-380,-55)" text-rendering="geometricPrecision" font-family="'Roboto'" shape-rendering="geometricPrecision" font-weight="bold" stroke-miterlimit="1.45">
      <text x="791.4655" xml:space="preserve" y="110.1312" clip-path="url(#clipPath7)" stroke="none">TComPortSettings</text>
    </g>
    <g text-rendering="geometricPrecision" stroke-miterlimit="1.45" stroke-width="2" shape-rendering="geometricPrecision" transform="matrix(1,0,0,1,-380,-55)" stroke-linecap="butt">
      <rect fill="none" x="395.5534" width="157" height="60.9147" y="158.7743" clip-path="url(#clipPath2)"/>
      <text x="446.7927" y="174.9072" clip-path="url(#clipPath8)" font-family="'Roboto'" stroke="none" stroke-width="1" xml:space="preserve">&lt;&lt;Class&gt;&gt;</text>
    </g>
    <g font-size="13px" stroke-linecap="butt" transform="matrix(1,0,0,1,-380,-55)" text-rendering="geometricPrecision" font-family="'Roboto'" shape-rendering="geometricPrecision" font-weight="bold" stroke-miterlimit="1.45">
      <text x="422.6787" xml:space="preserve" y="198.8974" clip-path="url(#clipPath8)" stroke="none">TZeroMQSettings</text>
    </g>
    <g text-rendering="geometricPrecision" stroke-miterlimit="1.45" stroke-width="2" shape-rendering="geometricPrecision" transform="matrix(1,0,0,1,-380,-55)" stroke-linecap="butt">
      <rect fill="none" x="395.5534" width="157" height="60.9147" y="70.0082" clip-path="url(#clipPath2)"/>
      <text x="446.7927" y="86.141" clip-path="url(#clipPath9)" font-family="'Roboto'" stroke="none" stroke-width="1" xml:space="preserve">&lt;&lt;Class&gt;&gt;</text>
    </g>
    <g font-size="13px" stroke-linecap="butt" transform="matrix(1,0,0,1,-380,-55)" text-rendering="geometricPrecision" font-family="'Roboto'" shape-rendering="geometricPrecision" font-weight="bold" stroke-miterlimit="1.45">
      <text x="428.2678" xml:space="preserve" y="110.1312" clip-path="url(#clipPath9)" stroke="none">TMQTTSettings</text>
    </g>
    <g text-rendering="geometricPrecision" stroke-miterlimit="1.45" stroke-width="2" shape-rendering="geometricPrecision" transform="matrix(1,0,0,1,-380,-55)" stroke-linecap="butt">
      <rect fill="none" x="395.5534" width="157" height="114.7161" y="433.6668" clip-path="url(#clipPath2)"/>
      <text x="446.7927" y="449.7997" clip-path="url(#clipPath10)" font-family="'Roboto'" stroke="none" stroke-width="1" xml:space="preserve">&lt;&lt;Class&gt;&gt;</text>
    </g>
    <g font-size="13px" stroke-linecap="butt" transform="matrix(1,0,0,1,-380,-55)" text-rendering="geometricPrecision" font-family="'Roboto'" shape-rendering="geometricPrecision" font-weight="bold" stroke-miterlimit="1.45">
      <text x="427.4553" xml:space="preserve" y="473.7899" clip-path="url(#clipPath10)" stroke="none">TWatchSettings</text>
    </g>
    <g text-rendering="geometricPrecision" shape-rendering="geometricPrecision" transform="matrix(1,0,0,1,-380,-55)">
      <line y2="481" fill="none" x1="396" clip-path="url(#clipPath10)" x2="551" y1="481"/>
      <text stroke-linecap="butt" x="400.5534" y="498.0965" clip-path="url(#clipPath10)" font-family="'Roboto'" stroke="none" stroke-miterlimit="1.45" xml:space="preserve">ColumnHeadersVisible</text>
      <text stroke-linecap="butt" x="400.5534" y="512.159" clip-path="url(#clipPath10)" font-family="'Roboto'" stroke="none" stroke-miterlimit="1.45" xml:space="preserve">OnlyTrackChanges</text>
      <text stroke-linecap="butt" x="400.5534" y="526.2215" clip-path="url(#clipPath10)" font-family="'Roboto'" stroke="none" stroke-miterlimit="1.45" xml:space="preserve">WatchHistoryVisible</text>
      <text stroke-linecap="butt" x="400.5534" y="540.284" clip-path="url(#clipPath10)" font-family="'Roboto'" stroke="none" stroke-miterlimit="1.45" xml:space="preserve">SyncWithSelection</text>
      <line y2="548" fill="none" x1="396" clip-path="url(#clipPath10)" x2="551" y1="548"/>
      <rect stroke-linecap="butt" x="766.8539" y="524.5815" clip-path="url(#clipPath2)" fill="none" width="157" height="198.7807" stroke-width="2" stroke-miterlimit="1.45"/>
      <text stroke-linecap="butt" x="818.0932" y="540.7143" clip-path="url(#clipPath11)" font-family="'Roboto'" stroke="none" stroke-miterlimit="1.45" xml:space="preserve">&lt;&lt;Class&gt;&gt;</text>
    </g>
    <g font-size="13px" stroke-linecap="butt" transform="matrix(1,0,0,1,-380,-55)" text-rendering="geometricPrecision" font-family="'Roboto'" shape-rendering="geometricPrecision" font-weight="bold" stroke-miterlimit="1.45">
      <text x="779.9763" xml:space="preserve" y="564.7045" clip-path="url(#clipPath11)" stroke="none">TMessageListSettings</text>
    </g>
    <g text-rendering="geometricPrecision" shape-rendering="geometricPrecision" transform="matrix(1,0,0,1,-380,-55)">
      <line y2="572" fill="none" x1="767" clip-path="url(#clipPath11)" x2="922" y1="572"/>
      <text stroke-linecap="butt" x="771.8539" y="589.0112" clip-path="url(#clipPath11)" font-family="'Roboto'" stroke="none" stroke-miterlimit="1.45" xml:space="preserve">AutoScrollMessages</text>
      <text stroke-linecap="butt" x="771.8539" y="603.0737" clip-path="url(#clipPath11)" font-family="'Roboto'" stroke="none" stroke-miterlimit="1.45" xml:space="preserve">AutoFilterMessages</text>
      <text stroke-linecap="butt" x="771.8539" y="617.1362" clip-path="url(#clipPath11)" font-family="'Roboto'" stroke="none" stroke-miterlimit="1.45" xml:space="preserve">DynamicAutoSizeColumns</text>
      <text stroke-linecap="butt" x="771.8539" y="631.1987" clip-path="url(#clipPath11)" font-family="'Roboto'" stroke="none" stroke-miterlimit="1.45" xml:space="preserve">MessageDetailsVisible</text>
      <text stroke-linecap="butt" x="771.8539" y="645.2612" clip-path="url(#clipPath11)" font-family="'Roboto'" stroke="none" stroke-miterlimit="1.45" xml:space="preserve">SmartTimeStamps</text>
      <text stroke-linecap="butt" x="771.8539" y="659.3237" clip-path="url(#clipPath11)" font-family="'Roboto'" stroke="none" stroke-miterlimit="1.45" xml:space="preserve">ColumnHeadersVisible</text>
      <text stroke-linecap="butt" x="771.8539" y="673.3862" clip-path="url(#clipPath11)" font-family="'Roboto'" stroke="none" stroke-miterlimit="1.45" xml:space="preserve"> </text>
      <text stroke-linecap="butt" x="771.8539" y="687.4487" clip-path="url(#clipPath11)" font-family="'Roboto'" stroke="none" stroke-miterlimit="1.45" xml:space="preserve">VisibleMessageTypes</text>
      <text stroke-linecap="butt" x="771.8539" y="701.5112" clip-path="url(#clipPath11)" font-family="'Roboto'" stroke="none" stroke-miterlimit="1.45" xml:space="preserve">VisibleValueTypes</text>
      <text stroke-linecap="butt" x="771.8539" y="715.5737" clip-path="url(#clipPath11)" font-family="'Roboto'" stroke="none" stroke-miterlimit="1.45" xml:space="preserve">HorizontalPanelPositions</text>
      <text stroke-linecap="butt" x="771.8539" y="729.6362" clip-path="url(#clipPath11)" font-family="'Roboto'" stroke="none" stroke-miterlimit="1.45" xml:space="preserve">LeftVerticalPanelPositions</text>
      <line y2="737" fill="none" x1="767" clip-path="url(#clipPath11)" x2="922" y1="737"/>
      <rect stroke-linecap="butt" x="395.5534" y="690.1201" clip-path="url(#clipPath2)" fill="none" width="157" height="268.05" stroke-width="2" stroke-miterlimit="1.45"/>
      <text stroke-linecap="butt" x="446.7927" y="706.2529" clip-path="url(#clipPath12)" font-family="'Roboto'" stroke="none" stroke-miterlimit="1.45" xml:space="preserve">&lt;&lt;Class&gt;&gt;</text>
    </g>
    <g font-size="13px" stroke-linecap="butt" transform="matrix(1,0,0,1,-380,-55)" text-rendering="geometricPrecision" font-family="'Roboto'" shape-rendering="geometricPrecision" font-weight="bold" stroke-miterlimit="1.45">
      <text x="404.5688" xml:space="preserve" y="730.2432" clip-path="url(#clipPath12)" stroke="none">TDisplayValuesSettings</text>
    </g>
    <g text-rendering="geometricPrecision" shape-rendering="geometricPrecision" transform="matrix(1,0,0,1,-380,-55)">
      <line y2="738" fill="none" x1="396" clip-path="url(#clipPath12)" x2="551" y1="738"/>
      <text stroke-linecap="butt" x="400.5534" y="754.5498" clip-path="url(#clipPath12)" font-family="'Roboto'" stroke="none" stroke-miterlimit="1.45" xml:space="preserve">TimeStamp</text>
      <text stroke-linecap="butt" x="400.5534" y="768.6123" clip-path="url(#clipPath12)" font-family="'Roboto'" stroke="none" stroke-miterlimit="1.45" xml:space="preserve">ValueName</text>
      <text stroke-linecap="butt" x="400.5534" y="782.6748" clip-path="url(#clipPath12)" font-family="'Roboto'" stroke="none" stroke-miterlimit="1.45" xml:space="preserve">ValueType</text>
      <text stroke-linecap="butt" x="400.5534" y="796.7373" clip-path="url(#clipPath12)" font-family="'Roboto'" stroke="none" stroke-miterlimit="1.45" xml:space="preserve">Value</text>
      <text stroke-linecap="butt" x="400.5534" y="810.7998" clip-path="url(#clipPath12)" font-family="'Roboto'" stroke="none" stroke-miterlimit="1.45" xml:space="preserve">Id</text>
      <text stroke-linecap="butt" x="400.5534" y="824.8623" clip-path="url(#clipPath12)" font-family="'Roboto'" stroke="none" stroke-miterlimit="1.45" xml:space="preserve">Warning</text>
      <text stroke-linecap="butt" x="400.5534" y="838.9248" clip-path="url(#clipPath12)" font-family="'Roboto'" stroke="none" stroke-miterlimit="1.45" xml:space="preserve">Info</text>
      <text stroke-linecap="butt" x="400.5534" y="852.9873" clip-path="url(#clipPath12)" font-family="'Roboto'" stroke="none" stroke-miterlimit="1.45" xml:space="preserve">Error</text>
      <text stroke-linecap="butt" x="400.5534" y="867.0498" clip-path="url(#clipPath12)" font-family="'Roboto'" stroke="none" stroke-miterlimit="1.45" xml:space="preserve">CheckPoint</text>
      <text stroke-linecap="butt" x="400.5534" y="881.1123" clip-path="url(#clipPath12)" font-family="'Roboto'" stroke="none" stroke-miterlimit="1.45" xml:space="preserve">Counter</text>
      <text stroke-linecap="butt" x="400.5534" y="895.1748" clip-path="url(#clipPath12)" font-family="'Roboto'" stroke="none" stroke-miterlimit="1.45" xml:space="preserve">Tracing</text>
      <text stroke-linecap="butt" x="400.5534" y="909.2373" clip-path="url(#clipPath12)" font-family="'Roboto'" stroke="none" stroke-miterlimit="1.45" xml:space="preserve">Enter</text>
      <text stroke-linecap="butt" x="400.5534" y="923.2998" clip-path="url(#clipPath12)" font-family="'Roboto'" stroke="none" stroke-miterlimit="1.45" xml:space="preserve">Leave</text>
      <text stroke-linecap="butt" x="400.5534" y="937.3623" clip-path="url(#clipPath12)" font-family="'Roboto'" stroke="none" stroke-miterlimit="1.45" xml:space="preserve">Conditional</text>
      <text stroke-linecap="butt" x="400.5534" y="951.4248" clip-path="url(#clipPath12)" font-family="'Roboto'" stroke="none" stroke-miterlimit="1.45" xml:space="preserve">Action</text>
      <line y2="959" fill="none" x1="396" clip-path="url(#clipPath12)" x2="551" y1="959"/>
      <rect stroke-linecap="butt" x="395.5534" y="247.5405" clip-path="url(#clipPath2)" fill="none" width="157" height="60.9147" stroke-width="2" stroke-miterlimit="1.45"/>
      <text stroke-linecap="butt" x="446.7927" y="263.6733" clip-path="url(#clipPath13)" font-family="'Roboto'" stroke="none" stroke-miterlimit="1.45" xml:space="preserve">&lt;&lt;Class&gt;&gt;</text>
    </g>
    <g font-size="13px" stroke-linecap="butt" transform="matrix(1,0,0,1,-380,-55)" text-rendering="geometricPrecision" font-family="'Roboto'" shape-rendering="geometricPrecision" font-weight="bold" stroke-miterlimit="1.45">
      <text x="413.4936" xml:space="preserve" y="287.6635" clip-path="url(#clipPath13)" stroke="none">TFileSystemSettings</text>
    </g>
    <g text-rendering="geometricPrecision" stroke-miterlimit="1.45" stroke-width="2" shape-rendering="geometricPrecision" transform="matrix(1,0,0,1,-380,-55)" stroke-linecap="butt">
      <rect fill="none" x="395.5534" width="157" height="72.5716" y="578.3829" clip-path="url(#clipPath2)"/>
      <text x="446.7927" y="594.5157" clip-path="url(#clipPath14)" font-family="'Roboto'" stroke="none" stroke-width="1" xml:space="preserve">&lt;&lt;Class&gt;&gt;</text>
    </g>
    <g font-size="13px" stroke-linecap="butt" transform="matrix(1,0,0,1,-380,-55)" text-rendering="geometricPrecision" font-family="'Roboto'" shape-rendering="geometricPrecision" font-weight="bold" stroke-miterlimit="1.45">
      <text x="418.2512" xml:space="preserve" y="618.5059" clip-path="url(#clipPath14)" stroke="none">TCallStackSettings</text>
    </g>
    <g text-rendering="geometricPrecision" shape-rendering="geometricPrecision" transform="matrix(1,0,0,1,-380,-55)">
      <line y2="626" fill="none" x1="396" clip-path="url(#clipPath14)" x2="551" y1="626"/>
      <text stroke-linecap="butt" x="400.5534" y="642.8126" clip-path="url(#clipPath14)" font-family="'Roboto'" stroke="none" stroke-miterlimit="1.45" xml:space="preserve">ColumnHeadersVisible</text>
      <line y2="650" fill="none" x1="396" clip-path="url(#clipPath14)" x2="551" y1="650"/>
      <path fill="none" stroke-miterlimit="1.45" d="M743.3993 381.2494 L845.3539 381.2494 L845.3539 433.6412" clip-path="url(#clipPath2)" stroke-linecap="butt"/>
      <path stroke-miterlimit="1.45" d="M736.3993 381.2494 L743.3993 376.2494 L750.3993 381.2494 L743.3993 386.2494 Z" clip-path="url(#clipPath2)" stroke-linecap="butt" stroke="none"/>
      <path fill="none" stroke-miterlimit="1.45" d="M692.1169 335.7152 L692.1169 191.3802 L766.8174 191.3802" clip-path="url(#clipPath2)" stroke-linecap="butt"/>
      <path stroke-miterlimit="1.45" d="M692.1169 342.7152 L687.1169 335.7152 L692.1169 328.7152 L697.1169 335.7152 Z" clip-path="url(#clipPath2)" stroke-linecap="butt" stroke="none"/>
      <path fill="none" stroke-miterlimit="1.45" d="M743.3713 361.2494 L845.3539 361.2494 L845.3539 308.4448" clip-path="url(#clipPath2)" stroke-linecap="butt"/>
      <path stroke-miterlimit="1.45" d="M736.3713 361.2494 L743.3713 356.2494 L750.3713 361.2494 L743.3713 366.2494 Z" clip-path="url(#clipPath2)" stroke-linecap="butt" stroke="none"/>
      <path fill="none" stroke-miterlimit="1.45" d="M665.0344 335.7226 L665.0344 100.4655 L766.8042 100.4655" clip-path="url(#clipPath2)" stroke-linecap="butt"/>
      <path stroke-miterlimit="1.45" d="M665.0344 342.7226 L660.0344 335.7226 L665.0344 328.7226 L670.0344 335.7226 Z" clip-path="url(#clipPath2)" stroke-linecap="butt" stroke="none"/>
      <path fill="none" stroke-miterlimit="1.45" d="M615.5 335.7147 L615.5 189.2317 L552.5392 189.2317" clip-path="url(#clipPath2)" stroke-linecap="butt"/>
      <path stroke-miterlimit="1.45" d="M615.5 342.7147 L610.5 335.7147 L615.5 328.7147 L620.5 335.7147 Z" clip-path="url(#clipPath2)" stroke-linecap="butt" stroke="none"/>
      <path fill="none" stroke-miterlimit="1.45" d="M645.0344 335.7226 L645.0344 100.4655 L552.5449 100.4655" clip-path="url(#clipPath2)" stroke-linecap="butt"/>
      <path stroke-miterlimit="1.45" d="M645.0344 342.7226 L640.0344 335.7226 L645.0344 328.7226 L650.0344 335.7226 Z" clip-path="url(#clipPath2)" stroke-linecap="butt" stroke="none"/>
      <path fill="none" stroke-miterlimit="1.45" d="M572.3815 390.2421 L474.0534 390.2421 L474.0534 433.6948" clip-path="url(#clipPath2)" stroke-linecap="butt"/>
      <path stroke-miterlimit="1.45" d="M579.3815 390.2421 L572.3815 395.2421 L565.3815 390.2421 L572.3815 385.2421 Z" clip-path="url(#clipPath2)" stroke-linecap="butt" stroke="none"/>
      <path fill="none" stroke-miterlimit="1.45" d="M691.5326 410.6854 L691.5326 623.9719 L766.9 623.9719" clip-path="url(#clipPath2)" stroke-linecap="butt"/>
      <path stroke-miterlimit="1.45" d="M691.5326 403.6854 L696.5326 410.6854 L691.5326 417.6854 L686.5326 410.6854 Z" clip-path="url(#clipPath2)" stroke-linecap="butt" stroke="none"/>
      <path fill="none" stroke-miterlimit="1.45" d="M657.8727 410.6774 L657.8727 824.1451 L552.5446 824.1451" clip-path="url(#clipPath2)" stroke-linecap="butt"/>
      <path stroke-miterlimit="1.45" d="M657.8727 403.6774 L662.8727 410.6774 L657.8727 417.6774 L652.8727 410.6774 Z" clip-path="url(#clipPath2)" stroke-linecap="butt" stroke="none"/>
      <path fill="none" stroke-miterlimit="1.45" d="M572.3881 360.3209 L474.0534 360.3209 L474.0534 308.4738" clip-path="url(#clipPath2)" stroke-linecap="butt"/>
      <path stroke-miterlimit="1.45" d="M579.3881 360.3209 L572.3881 365.3209 L565.3881 360.3209 L572.3881 355.3209 Z" clip-path="url(#clipPath2)" stroke-linecap="butt" stroke="none"/>
      <path fill="none" stroke-miterlimit="1.45" d="M615.5 410.6572 L615.5 614.6687 L552.5466 614.6687" clip-path="url(#clipPath2)" stroke-linecap="butt"/>
      <path stroke-miterlimit="1.45" d="M615.5 403.6572 L620.5 410.6572 L615.5 417.6572 L610.5 410.6572 Z" clip-path="url(#clipPath2)" stroke-linecap="butt" stroke="none"/>
    </g>
  </g>
</svg>
