<?xml version="1.0" encoding="UTF-8"?><svg xmlns="http://www.w3.org/2000/svg" xmlns:xlink="http://www.w3.org/1999/xlink" fill-opacity="1" color-rendering="auto" color-interpolation="auto" text-rendering="auto" stroke="black" stroke-linecap="square" width="1080" stroke-miterlimit="10" shape-rendering="auto" stroke-opacity="1" fill="black" stroke-dasharray="none" font-weight="normal" stroke-width="1" height="774" font-family="'Dialog'" font-style="normal" stroke-linejoin="miter" font-size="12px" stroke-dashoffset="0" image-rendering="auto">
  <!--Generated by ySVG 2.5-->
  <defs id="genericDefs"/>
  <g>
    <defs id="defs1">
      <clipPath clipPathUnits="userSpaceOnUse" id="clipPath1">
        <path d="M0 0 L1080 0 L1080 774 L0 774 L0 0 Z"/>
      </clipPath>
      <clipPath clipPathUnits="userSpaceOnUse" id="clipPath2">
        <path d="M-210 -8 L870 -8 L870 766 L-210 766 L-210 -8 Z"/>
      </clipPath>
      <clipPath clipPathUnits="userSpaceOnUse" id="clipPath3">
        <path d="M705 349 L705 568 L855 568 L855 349 Z"/>
      </clipPath>
      <clipPath clipPathUnits="userSpaceOnUse" id="clipPath4">
        <path d="M525 349 L525 498 L675 498 L675 349 Z"/>
      </clipPath>
      <clipPath clipPathUnits="userSpaceOnUse" id="clipPath5">
        <path d="M525 558 L525 749 L675 749 L675 558 Z"/>
      </clipPath>
      <clipPath clipPathUnits="userSpaceOnUse" id="clipPath6">
        <path d="M345 349 L345 401 L495 401 L495 349 Z"/>
      </clipPath>
      <clipPath clipPathUnits="userSpaceOnUse" id="clipPath7">
        <path d="M-15 349 L-15 435 L135 435 L135 349 Z"/>
      </clipPath>
      <clipPath clipPathUnits="userSpaceOnUse" id="clipPath8">
        <path d="M-195 349 L-195 486 L-45 486 L-45 349 Z"/>
      </clipPath>
      <clipPath clipPathUnits="userSpaceOnUse" id="clipPath9">
        <path d="M165 349 L165 569 L315 569 L315 349 Z"/>
      </clipPath>
      <clipPath clipPathUnits="userSpaceOnUse" id="clipPath10">
        <path d="M265 7 L265 240 L415 240 L415 7 Z"/>
      </clipPath>
    </defs>
    <g fill="white" text-rendering="geometricPrecision" shape-rendering="geometricPrecision" transform="translate(210,8)" stroke="white">
      <rect x="-210" width="1080" height="774" y="-8" clip-path="url(#clipPath2)" stroke="none"/>
    </g>
    <g text-rendering="geometricPrecision" stroke-miterlimit="1.45" stroke-width="2" shape-rendering="geometricPrecision" transform="matrix(1,0,0,1,210,8)" stroke-linecap="butt">
      <rect fill="none" x="705" width="150" height="219.72" y="349.6" clip-path="url(#clipPath2)"/>
      <text x="743.7012" y="365.7328" clip-path="url(#clipPath3)" font-family="'Roboto'" stroke="none" stroke-width="1" xml:space="preserve">&lt;&lt;Interface&gt;&gt;</text>
    </g>
    <g font-size="13px" stroke-linecap="butt" transform="matrix(1,0,0,1,210,8)" text-rendering="geometricPrecision" font-family="'Roboto'" shape-rendering="geometricPrecision" font-weight="bold" stroke-miterlimit="1.45">
      <text x="747.4016" xml:space="preserve" y="389.7231" clip-path="url(#clipPath3)" stroke="none">ILogViewer</text>
    </g>
    <g text-rendering="geometricPrecision" shape-rendering="geometricPrecision" transform="matrix(1,0,0,1,210,8)">
      <line y2="397" fill="none" x1="706" clip-path="url(#clipPath3)" x2="854" y1="397"/>
      <text stroke-linecap="butt" x="710" y="414.0297" clip-path="url(#clipPath3)" font-family="'Roboto'" stroke="none" stroke-miterlimit="1.45" xml:space="preserve">IsActiveView</text>
      <text stroke-linecap="butt" x="710" y="428.0922" clip-path="url(#clipPath3)" font-family="'Roboto'" stroke="none" stroke-miterlimit="1.45" xml:space="preserve">Subscriber</text>
      <line y2="436" fill="none" x1="706" clip-path="url(#clipPath3)" x2="854" y1="436"/>
      <text stroke-linecap="butt" x="710" y="452.1547" clip-path="url(#clipPath3)" font-family="'Roboto'" stroke="none" stroke-miterlimit="1.45" xml:space="preserve">Clear</text>
      <text stroke-linecap="butt" x="710" y="466.2172" clip-path="url(#clipPath3)" font-family="'Roboto'" stroke="none" stroke-miterlimit="1.45" xml:space="preserve">UpdateView</text>
      <text stroke-linecap="butt" x="710" y="480.2797" clip-path="url(#clipPath3)" font-family="'Roboto'" stroke="none" stroke-miterlimit="1.45" xml:space="preserve">GotoFirst</text>
      <text stroke-linecap="butt" x="710" y="494.3422" clip-path="url(#clipPath3)" font-family="'Roboto'" stroke="none" stroke-miterlimit="1.45" xml:space="preserve">GotoLast</text>
      <text stroke-linecap="butt" x="710" y="508.4047" clip-path="url(#clipPath3)" font-family="'Roboto'" stroke="none" stroke-miterlimit="1.45" xml:space="preserve">CollapseAll</text>
      <text stroke-linecap="butt" x="710" y="522.4672" clip-path="url(#clipPath3)" font-family="'Roboto'" stroke="none" stroke-miterlimit="1.45" xml:space="preserve">ExpandAll</text>
      <text stroke-linecap="butt" x="710" y="536.5297" clip-path="url(#clipPath3)" font-family="'Roboto'" stroke="none" stroke-miterlimit="1.45" xml:space="preserve">SetFocusToFilter</text>
      <text stroke-linecap="butt" x="710" y="550.5922" clip-path="url(#clipPath3)" font-family="'Roboto'" stroke="none" stroke-miterlimit="1.45" xml:space="preserve">SelectAll</text>
      <text stroke-linecap="butt" x="710" y="564.6547" clip-path="url(#clipPath3)" font-family="'Roboto'" stroke="none" stroke-miterlimit="1.45" xml:space="preserve">ClearSelection</text>
      <rect stroke-linecap="butt" x="525" y="349.6" clip-path="url(#clipPath2)" fill="none" width="150" height="149.792" stroke-width="2" stroke-miterlimit="1.45"/>
      <text stroke-linecap="butt" x="563.7012" y="365.7328" clip-path="url(#clipPath4)" font-family="'Roboto'" stroke="none" stroke-miterlimit="1.45" xml:space="preserve">&lt;&lt;Interface&gt;&gt;</text>
    </g>
    <g font-size="13px" stroke-linecap="butt" transform="matrix(1,0,0,1,210,8)" text-rendering="geometricPrecision" font-family="'Roboto'" shape-rendering="geometricPrecision" font-weight="bold" stroke-miterlimit="1.45">
      <text x="549.2886" xml:space="preserve" y="389.7231" clip-path="url(#clipPath4)" stroke="none">IChannelReceiver</text>
    </g>
    <g text-rendering="geometricPrecision" shape-rendering="geometricPrecision" transform="matrix(1,0,0,1,210,8)">
      <line y2="397" fill="none" x1="526" clip-path="url(#clipPath4)" x2="674" y1="397"/>
      <text stroke-linecap="butt" x="530" y="414.0297" clip-path="url(#clipPath4)" font-family="'Roboto'" stroke="none" stroke-miterlimit="1.45" xml:space="preserve">Name</text>
      <text stroke-linecap="butt" x="530" y="428.0922" clip-path="url(#clipPath4)" font-family="'Roboto'" stroke="none" stroke-miterlimit="1.45" xml:space="preserve">Enabled</text>
      <text stroke-linecap="butt" x="530" y="442.1547" clip-path="url(#clipPath4)" font-family="'Roboto'" stroke="none" stroke-miterlimit="1.45" xml:space="preserve">SubscriberList</text>
      <text stroke-linecap="butt" x="530" y="456.2172" clip-path="url(#clipPath4)" font-family="'Roboto'" stroke="none" stroke-miterlimit="1.45" xml:space="preserve">OnChange</text>
      <line y2="464" fill="none" x1="526" clip-path="url(#clipPath4)" x2="674" y1="464"/>
      <text stroke-linecap="butt" x="530" y="480.2797" clip-path="url(#clipPath4)" font-family="'Roboto'" stroke="none" stroke-miterlimit="1.45" xml:space="preserve">DoReceiveMessage</text>
      <text stroke-linecap="butt" x="530" y="494.3422" clip-path="url(#clipPath4)" font-family="'Roboto'" stroke="none" stroke-miterlimit="1.45" xml:space="preserve">ToString</text>
      <rect stroke-linecap="butt" x="525" y="558.4" clip-path="url(#clipPath2)" fill="none" width="150" height="192" stroke-width="2" stroke-miterlimit="1.45"/>
      <text stroke-linecap="butt" x="563.7012" y="574.5328" clip-path="url(#clipPath5)" font-family="'Roboto'" stroke="none" stroke-miterlimit="1.45" xml:space="preserve">&lt;&lt;Interface&gt;&gt;</text>
    </g>
    <g font-size="13px" stroke-linecap="butt" transform="matrix(1,0,0,1,210,8)" text-rendering="geometricPrecision" font-family="'Roboto'" shape-rendering="geometricPrecision" font-weight="bold" stroke-miterlimit="1.45">
      <text x="566.6526" xml:space="preserve" y="598.5231" clip-path="url(#clipPath5)" stroke="none">ISubscriber</text>
    </g>
    <g text-rendering="geometricPrecision" shape-rendering="geometricPrecision" transform="matrix(1,0,0,1,210,8)">
      <line y2="606" fill="none" x1="526" clip-path="url(#clipPath5)" x2="674" y1="606"/>
      <text stroke-linecap="butt" x="530" y="622.8297" clip-path="url(#clipPath5)" font-family="'Roboto'" stroke="none" stroke-miterlimit="1.45" xml:space="preserve">Key</text>
      <text stroke-linecap="butt" x="530" y="636.8922" clip-path="url(#clipPath5)" font-family="'Roboto'" stroke="none" stroke-miterlimit="1.45" xml:space="preserve">Enabled</text>
      <text stroke-linecap="butt" x="530" y="650.9547" clip-path="url(#clipPath5)" font-family="'Roboto'" stroke="none" stroke-miterlimit="1.45" xml:space="preserve">MessageCount</text>
      <text stroke-linecap="butt" x="530" y="665.0172" clip-path="url(#clipPath5)" font-family="'Roboto'" stroke="none" stroke-miterlimit="1.45" xml:space="preserve">Receiver</text>
      <text stroke-linecap="butt" x="530" y="679.0797" clip-path="url(#clipPath5)" font-family="'Roboto'" stroke="none" stroke-miterlimit="1.45" xml:space="preserve">SourceId</text>
      <text stroke-linecap="butt" x="530" y="693.1422" clip-path="url(#clipPath5)" font-family="'Roboto'" stroke="none" stroke-miterlimit="1.45" xml:space="preserve">SourceName</text>
      <text stroke-linecap="butt" x="530" y="707.2047" clip-path="url(#clipPath5)" font-family="'Roboto'" stroke="none" stroke-miterlimit="1.45" xml:space="preserve">OnChange</text>
      <text stroke-linecap="butt" x="530" y="721.2672" clip-path="url(#clipPath5)" font-family="'Roboto'" stroke="none" stroke-miterlimit="1.45" xml:space="preserve">OnReceiveMessage</text>
      <line y2="729" fill="none" x1="526" clip-path="url(#clipPath5)" x2="674" y1="729"/>
      <text stroke-linecap="butt" x="530" y="745.3297" clip-path="url(#clipPath5)" font-family="'Roboto'" stroke="none" stroke-miterlimit="1.45" xml:space="preserve">Poll</text>
      <rect stroke-linecap="butt" x="345" y="349" clip-path="url(#clipPath2)" fill="none" width="150" height="52" stroke-width="2" stroke-miterlimit="1.45"/>
      <text stroke-linecap="butt" x="383.7012" y="365.1328" clip-path="url(#clipPath6)" font-family="'Roboto'" stroke="none" stroke-miterlimit="1.45" xml:space="preserve">&lt;&lt;Interface&gt;&gt;</text>
    </g>
    <g font-size="13px" stroke-linecap="butt" transform="matrix(1,0,0,1,210,8)" text-rendering="geometricPrecision" font-family="'Roboto'" shape-rendering="geometricPrecision" font-weight="bold" stroke-miterlimit="1.45">
      <text x="365.2261" xml:space="preserve" y="389.123" clip-path="url(#clipPath6)" stroke="none">ILogViewerActions</text>
    </g>
    <g text-rendering="geometricPrecision" stroke-miterlimit="1.45" stroke-width="2" shape-rendering="geometricPrecision" transform="matrix(1,0,0,1,210,8)" stroke-linecap="butt">
      <rect fill="none" x="-15" width="150" height="86" y="349" clip-path="url(#clipPath2)"/>
      <text x="23.7012" y="365.1328" clip-path="url(#clipPath7)" font-family="'Roboto'" stroke="none" stroke-width="1" xml:space="preserve">&lt;&lt;Interface&gt;&gt;</text>
    </g>
    <g font-size="13px" stroke-linecap="butt" transform="matrix(1,0,0,1,210,8)" text-rendering="geometricPrecision" font-family="'Roboto'" shape-rendering="geometricPrecision" font-weight="bold" stroke-miterlimit="1.45">
      <text x="7.6572" xml:space="preserve" y="389.123" clip-path="url(#clipPath7)" stroke="none">ILogViewerMenus</text>
    </g>
    <g text-rendering="geometricPrecision" shape-rendering="geometricPrecision" transform="matrix(1,0,0,1,210,8)">
      <line y2="397" fill="none" x1="-14" clip-path="url(#clipPath7)" x2="134" y1="397"/>
      <text stroke-linecap="butt" x="-10" y="413.4297" clip-path="url(#clipPath7)" font-family="'Roboto'" stroke="none" stroke-miterlimit="1.45" xml:space="preserve">LogTreeViewerPopupMenu</text>
      <text stroke-linecap="butt" x="-10" y="427.4922" clip-path="url(#clipPath7)" font-family="'Roboto'" stroke="none" stroke-miterlimit="1.45" xml:space="preserve">MessageTypesPopupMenu</text>
      <line y2="435" fill="none" x1="-14" clip-path="url(#clipPath7)" x2="134" y1="435"/>
      <rect stroke-linecap="butt" x="-195" y="349" clip-path="url(#clipPath2)" fill="none" width="150" height="137.52" stroke-width="2" stroke-miterlimit="1.45"/>
      <text stroke-linecap="butt" x="-156.2988" y="365.1328" clip-path="url(#clipPath8)" font-family="'Roboto'" stroke="none" stroke-miterlimit="1.45" xml:space="preserve">&lt;&lt;Interface&gt;&gt;</text>
    </g>
    <g font-size="13px" stroke-linecap="butt" transform="matrix(1,0,0,1,210,8)" text-rendering="geometricPrecision" font-family="'Roboto'" shape-rendering="geometricPrecision" font-weight="bold" stroke-miterlimit="1.45">
      <text x="-172.2158" xml:space="preserve" y="389.123" clip-path="url(#clipPath8)" stroke="none">ILogViewerEvents</text>
    </g>
    <g text-rendering="geometricPrecision" shape-rendering="geometricPrecision" transform="matrix(1,0,0,1,210,8)">
      <line y2="397" fill="none" x1="-194" clip-path="url(#clipPath8)" x2="-46" y1="397"/>
      <text stroke-linecap="butt" x="-190" y="413.4297" clip-path="url(#clipPath8)" font-family="'Roboto'" stroke="none" stroke-miterlimit="1.45" xml:space="preserve">OnActiveViewChange</text>
      <text stroke-linecap="butt" x="-190" y="427.4922" clip-path="url(#clipPath8)" font-family="'Roboto'" stroke="none" stroke-miterlimit="1.45" xml:space="preserve">OnAddReceiver</text>
      <text stroke-linecap="butt" x="-190" y="441.5547" clip-path="url(#clipPath8)" font-family="'Roboto'" stroke="none" stroke-miterlimit="1.45" xml:space="preserve">OnAddLogViewer</text>
      <text stroke-linecap="butt" x="-190" y="455.6172" clip-path="url(#clipPath8)" font-family="'Roboto'" stroke="none" stroke-miterlimit="1.45" xml:space="preserve">OnDeleteLogViewer</text>
      <line y2="463" fill="none" x1="-194" clip-path="url(#clipPath8)" x2="-46" y1="463"/>
      <text stroke-linecap="butt" x="-190" y="479.6797" clip-path="url(#clipPath8)" font-family="'Roboto'" stroke="none" stroke-miterlimit="1.45" xml:space="preserve">Clear</text>
      <rect stroke-linecap="butt" x="165" y="349" clip-path="url(#clipPath2)" fill="none" width="150" height="220.32" stroke-width="2" stroke-miterlimit="1.45"/>
      <text stroke-linecap="butt" x="203.7012" y="365.1328" clip-path="url(#clipPath9)" font-family="'Roboto'" stroke="none" stroke-miterlimit="1.45" xml:space="preserve">&lt;&lt;Interface&gt;&gt;</text>
    </g>
    <g font-size="13px" stroke-linecap="butt" transform="matrix(1,0,0,1,210,8)" text-rendering="geometricPrecision" font-family="'Roboto'" shape-rendering="geometricPrecision" font-weight="bold" stroke-miterlimit="1.45">
      <text x="174.1685" xml:space="preserve" y="389.123" clip-path="url(#clipPath9)" stroke="none">ILogViewerCommands</text>
    </g>
    <g text-rendering="geometricPrecision" shape-rendering="geometricPrecision" transform="matrix(1,0,0,1,210,8)">
      <line y2="397" fill="none" x1="166" clip-path="url(#clipPath9)" x2="314" y1="397"/>
      <line y2="407" fill="none" x1="166" clip-path="url(#clipPath9)" x2="314" y1="407"/>
      <text stroke-linecap="butt" x="170" y="423.4297" clip-path="url(#clipPath9)" font-family="'Roboto'" stroke="none" stroke-miterlimit="1.45" xml:space="preserve">ClearMessages</text>
      <text stroke-linecap="butt" x="170" y="437.4922" clip-path="url(#clipPath9)" font-family="'Roboto'" stroke="none" stroke-miterlimit="1.45" xml:space="preserve">UpdateView</text>
      <text stroke-linecap="butt" x="170" y="451.5547" clip-path="url(#clipPath9)" font-family="'Roboto'" stroke="none" stroke-miterlimit="1.45" xml:space="preserve">Start</text>
      <text stroke-linecap="butt" x="170" y="465.6172" clip-path="url(#clipPath9)" font-family="'Roboto'" stroke="none" stroke-miterlimit="1.45" xml:space="preserve">Stop</text>
      <text stroke-linecap="butt" x="170" y="479.6797" clip-path="url(#clipPath9)" font-family="'Roboto'" stroke="none" stroke-miterlimit="1.45" xml:space="preserve">CollapseAll</text>
      <text stroke-linecap="butt" x="170" y="493.7422" clip-path="url(#clipPath9)" font-family="'Roboto'" stroke="none" stroke-miterlimit="1.45" xml:space="preserve">ExpandAll</text>
      <text stroke-linecap="butt" x="170" y="507.8047" clip-path="url(#clipPath9)" font-family="'Roboto'" stroke="none" stroke-miterlimit="1.45" xml:space="preserve">GotoFirst</text>
      <text stroke-linecap="butt" x="170" y="521.8672" clip-path="url(#clipPath9)" font-family="'Roboto'" stroke="none" stroke-miterlimit="1.45" xml:space="preserve">GotoLast</text>
      <text stroke-linecap="butt" x="170" y="535.9297" clip-path="url(#clipPath9)" font-family="'Roboto'" stroke="none" stroke-miterlimit="1.45" xml:space="preserve">SetFocusToFilter</text>
      <text stroke-linecap="butt" x="170" y="549.9922" clip-path="url(#clipPath9)" font-family="'Roboto'" stroke="none" stroke-miterlimit="1.45" xml:space="preserve">SelectAll</text>
      <text stroke-linecap="butt" x="170" y="564.0547" clip-path="url(#clipPath9)" font-family="'Roboto'" stroke="none" stroke-miterlimit="1.45" xml:space="preserve">ClearSelection</text>
      <rect stroke-linecap="butt" x="265" y="7.6667" clip-path="url(#clipPath2)" fill="none" width="150" height="233.9147" stroke-width="2" stroke-miterlimit="1.45"/>
      <text stroke-linecap="butt" x="303.7012" y="23.7995" clip-path="url(#clipPath10)" font-family="'Roboto'" stroke="none" stroke-miterlimit="1.45" xml:space="preserve">&lt;&lt;Interface&gt;&gt;</text>
    </g>
    <g font-size="13px" stroke-linecap="butt" transform="matrix(1,0,0,1,210,8)" text-rendering="geometricPrecision" font-family="'Roboto'" shape-rendering="geometricPrecision" font-weight="bold" stroke-miterlimit="1.45">
      <text x="281.738" xml:space="preserve" y="47.7897" clip-path="url(#clipPath10)" stroke="none">ILogViewerManager</text>
    </g>
    <g text-rendering="geometricPrecision" shape-rendering="geometricPrecision" transform="matrix(1,0,0,1,210,8)">
      <line y2="55" fill="none" x1="266" clip-path="url(#clipPath10)" x2="414" y1="55"/>
      <text stroke-linecap="butt" x="270" y="72.0964" clip-path="url(#clipPath10)" font-family="'Roboto'" stroke="none" stroke-miterlimit="1.45" xml:space="preserve">ActiveView</text>
      <text stroke-linecap="butt" x="270" y="86.1589" clip-path="url(#clipPath10)" font-family="'Roboto'" stroke="none" stroke-miterlimit="1.45" xml:space="preserve">Menus</text>
      <text stroke-linecap="butt" x="270" y="100.2214" clip-path="url(#clipPath10)" font-family="'Roboto'" stroke="none" stroke-miterlimit="1.45" xml:space="preserve">Actions</text>
      <text stroke-linecap="butt" x="270" y="114.2839" clip-path="url(#clipPath10)" font-family="'Roboto'" stroke="none" stroke-miterlimit="1.45" xml:space="preserve">Commands</text>
      <text stroke-linecap="butt" x="270" y="128.3464" clip-path="url(#clipPath10)" font-family="'Roboto'" stroke="none" stroke-miterlimit="1.45" xml:space="preserve">Settings</text>
      <text stroke-linecap="butt" x="270" y="142.4089" clip-path="url(#clipPath10)" font-family="'Roboto'" stroke="none" stroke-miterlimit="1.45" xml:space="preserve">Events</text>
      <text stroke-linecap="butt" x="270" y="156.4714" clip-path="url(#clipPath10)" font-family="'Roboto'" stroke="none" stroke-miterlimit="1.45" xml:space="preserve">Views</text>
      <text stroke-linecap="butt" x="270" y="170.5339" clip-path="url(#clipPath10)" font-family="'Roboto'" stroke="none" stroke-miterlimit="1.45" xml:space="preserve">Receivers</text>
      <text stroke-linecap="butt" x="270" y="184.5964" clip-path="url(#clipPath10)" font-family="'Roboto'" stroke="none" stroke-miterlimit="1.45" xml:space="preserve">EditorManager</text>
      <line y2="192" fill="none" x1="266" clip-path="url(#clipPath10)" x2="414" y1="192"/>
      <text stroke-linecap="butt" x="270" y="208.6589" clip-path="url(#clipPath10)" font-family="'Roboto'" stroke="none" stroke-miterlimit="1.45" xml:space="preserve">AddView</text>
      <text stroke-linecap="butt" x="270" y="222.7214" clip-path="url(#clipPath10)" font-family="'Roboto'" stroke="none" stroke-miterlimit="1.45" xml:space="preserve">DeleteView</text>
      <text stroke-linecap="butt" x="270" y="236.7839" clip-path="url(#clipPath10)" font-family="'Roboto'" stroke="none" stroke-miterlimit="1.45" xml:space="preserve">AddReceiver</text>
      <path fill="none" stroke-miterlimit="1.45" d="M780 576.3434 L780 666.8 L675.0266 666.8" clip-path="url(#clipPath2)" stroke-linecap="butt"/>
    </g>
    <g stroke-linecap="butt" transform="matrix(1,0,0,1,210,8)" fill="white" text-rendering="geometricPrecision" shape-rendering="geometricPrecision" stroke="white" stroke-miterlimit="1.45">
      <path d="M780 569.3434 L785 576.3434 L780 583.3434 L775 576.3434 Z" stroke="none" clip-path="url(#clipPath2)"/>
      <path fill="none" d="M780 569.3434 L785 576.3434 L780 583.3434 L775 576.3434 Z" clip-path="url(#clipPath2)" stroke="black"/>
      <path fill="none" d="M600 506.4 L600 558.3954" clip-path="url(#clipPath2)" stroke="black"/>
      <path d="M600 499.4 L605 506.4 L600 513.4 L595 506.4 Z" clip-path="url(#clipPath2)" stroke="none"/>
      <path fill="none" d="M600 499.4 L605 506.4 L600 513.4 L595 506.4 Z" clip-path="url(#clipPath2)" stroke="black"/>
      <text x="609.2983" y="546.169" clip-path="url(#clipPath2)" fill="black" font-family="sans-serif" stroke="none" xml:space="preserve">0...*</text>
      <path fill="none" d="M340 248.5904 L340 290 L-120 290 L-120 348.9829" clip-path="url(#clipPath2)" stroke="black"/>
      <path d="M340 241.5904 L345 248.5904 L340 255.5904 L335 248.5904 Z" clip-path="url(#clipPath2)" stroke="none"/>
      <path fill="none" d="M340 241.5904 L345 248.5904 L340 255.5904 L335 248.5904 Z" clip-path="url(#clipPath2)" stroke="black"/>
      <path fill="none" d="M340 248.5904 L340 290 L60 290 L60 349.0186" clip-path="url(#clipPath2)" stroke="black"/>
      <path d="M340 241.5904 L345 248.5904 L340 255.5904 L335 248.5904 Z" clip-path="url(#clipPath2)" stroke="none"/>
      <path fill="none" d="M340 241.5904 L345 248.5904 L340 255.5904 L335 248.5904 Z" clip-path="url(#clipPath2)" stroke="black"/>
      <path fill="none" d="M340 248.5904 L340 290 L240 290 L240 349.016" clip-path="url(#clipPath2)" stroke="black"/>
      <path d="M340 241.5904 L345 248.5904 L340 255.5904 L335 248.5904 Z" clip-path="url(#clipPath2)" stroke="none"/>
      <path fill="none" d="M340 241.5904 L345 248.5904 L340 255.5904 L335 248.5904 Z" clip-path="url(#clipPath2)" stroke="black"/>
      <path fill="none" d="M340 248.5904 L340 290 L420 290 L420 348.9771" clip-path="url(#clipPath2)" stroke="black"/>
      <path d="M340 241.5904 L345 248.5904 L340 255.5904 L335 248.5904 Z" clip-path="url(#clipPath2)" stroke="none"/>
      <path fill="none" d="M340 241.5904 L345 248.5904 L340 255.5904 L335 248.5904 Z" clip-path="url(#clipPath2)" stroke="black"/>
      <path fill="none" d="M340 248.5904 L340 290 L600 290 L600 349.5972" clip-path="url(#clipPath2)" stroke="black"/>
      <path d="M340 241.5904 L345 248.5904 L340 255.5904 L335 248.5904 Z" clip-path="url(#clipPath2)" stroke="none"/>
      <path fill="none" d="M340 241.5904 L345 248.5904 L340 255.5904 L335 248.5904 Z" clip-path="url(#clipPath2)" stroke="black"/>
      <path fill="none" d="M422.0073 124.624 L780 124.624 L780 349.6328" clip-path="url(#clipPath2)" stroke="black"/>
      <path d="M415.0073 124.624 L422.0073 119.624 L429.0073 124.624 L422.0073 129.624 Z" clip-path="url(#clipPath2)" stroke="none"/>
      <path fill="none" d="M415.0073 124.624 L422.0073 119.624 L429.0073 124.624 L422.0073 129.624 Z" clip-path="url(#clipPath2)" stroke="black"/>
      <text x="792.1271" y="333.3957" clip-path="url(#clipPath2)" fill="black" font-family="sans-serif" stroke="none" xml:space="preserve">0...*</text>
    </g>
  </g>
</svg>
